<svg xmlns="http://www.w3.org/2000/svg" viewBox="0 0 249 249" width="249" height="249">
  <rect width="249" height="249" fill="#1C0E05"/>
  <path fill="#ECE3D6" d="M185.188 42.2L186.788 64L127.388 167C127.388 167 126.721 168.2 125.388 170.6C124.054 172.867 122.721 175.667 121.388 179C120.188 182.333 119.588 185.667 119.588 189H117.588L109.788 171.6L185.188 42.2ZM49.5875 170.4V185H27.3875V183C27.5208 183 28.1208 183 29.1875 183C30.1208 183 30.5875 183 30.5875 183C34.1875 183 37.3875 181.933 40.1875 179.8C42.9875 177.533 44.6542 174.4 45.1875 170.4H49.5875ZM58.3875 173.6C58.3875 173.733 58.3875 173.867 58.3875 174C58.3875 174.133 58.3875 174.333 58.3875 174.6C58.3875 176.733 59.1208 178.733 60.5875 180.6C62.1875 182.333 64.0542 183.2 66.1875 183.2H69.1875V185H56.9875V173.6H58.3875ZM61.7875 42.2H63.5875L70.5875 62.2L57.1875 185H43.1875L61.7875 42.2ZM63.5875 42.2L128.988 149.6L117.588 189L58.3875 89.6L63.5875 42.2ZM186.988 42.2L205.988 185H173.788L163.788 93L185.188 42.2H186.988ZM199.788 170.4H203.988C204.654 174.4 206.388 177.533 209.188 179.8C211.988 181.933 215.121 183 218.588 183C218.588 183 219.121 183 220.188 183C221.254 183 221.788 183 221.788 183V185H199.788V170.4ZM172.588 173.6H173.988V185H161.788V183.2H164.788C167.054 183.2 168.921 182.333 170.388 180.6C171.854 178.733 172.588 176.733 172.588 174.6C172.588 174.333 172.588 174.133 172.588 174C172.588 173.867 172.588 173.733 172.588 173.6Z"/>
</svg>
